<?xml version="1.0" encoding="UTF-8" standalone="no"?>
<svg
   xmlns:dc="http://purl.org/dc/elements/1.1/"
   xmlns:cc="http://creativecommons.org/ns#"
   xmlns:rdf="http://www.w3.org/1999/02/22-rdf-syntax-ns#"
   xmlns:svg="http://www.w3.org/2000/svg"
   xmlns="http://www.w3.org/2000/svg"
   xmlns:sodipodi="http://sodipodi.sourceforge.net/DTD/sodipodi-0.dtd"
   xmlns:inkscape="http://www.inkscape.org/namespaces/inkscape"
   id="Layer_1"
   version="1.1"
   viewBox="0 0 60 60"
   xml:space="preserve"
   inkscape:version="0.91 r13725"
   sodipodi:docname="BehanceWhite.svg"
   width="60"
   height="60"><metadata
     id="metadata11"><rdf:RDF><cc:Work
         rdf:about=""><dc:format>image/svg+xml</dc:format><dc:type
           rdf:resource="http://purl.org/dc/dcmitype/StillImage" /><dc:title></dc:title></cc:Work></rdf:RDF></metadata><defs
     id="defs9" /><sodipodi:namedview
     pagecolor="#ffffff"
     bordercolor="#666666"
     borderopacity="1"
     objecttolerance="10"
     gridtolerance="10"
     guidetolerance="10"
     inkscape:pageopacity="0"
     inkscape:pageshadow="2"
     inkscape:window-width="1920"
     inkscape:window-height="1046"
     id="namedview7"
     showgrid="false"
     inkscape:zoom="11.313708"
     inkscape:cx="16.78927"
     inkscape:cy="22.522175"
     inkscape:window-x="-11"
     inkscape:window-y="-11"
     inkscape:window-maximized="1"
     inkscape:current-layer="Layer_1" /><path
     inkscape:connector-curvature="0"
     id="XMLID_102_"
     d="m 23.696346,20.601397 c 0.880551,0 1.681051,0.07277 2.408779,0.232873 0.72045,0.152822 1.339019,0.407527 1.862983,0.764114 0.516687,0.349309 0.916937,0.822332 1.200751,1.404514 0.283813,0.582182 0.422082,1.30991 0.422082,2.168629 0,0.931491 -0.211041,1.702882 -0.633123,2.328728 -0.422083,0.618569 -1.047928,1.127978 -1.884815,1.520951 1.135255,0.327478 1.979419,0.902383 2.532492,1.717438 0.56035,0.822332 0.836887,1.804764 0.836887,2.961851 0,0.938769 -0.181932,1.73927 -0.538518,2.416056 -0.363864,0.684064 -0.851442,1.244415 -1.462733,1.673774 -0.611291,0.429359 -1.30991,0.74956 -2.095856,0.960601 -0.778669,0.203763 -1.586446,0.312922 -2.408779,0.312922 l -8.936496,0 0,-18.462451 8.696346,0 z m -0.523964,7.451931 c 0.720451,0 1.317187,-0.167377 1.79021,-0.516686 0.465746,-0.342032 0.691342,-0.902383 0.691342,-1.681051 0,-0.42936 -0.07277,-0.785946 -0.225596,-1.062483 -0.1601,-0.276536 -0.363864,-0.487577 -0.625846,-0.6404 -0.261982,-0.1601 -0.553073,-0.261982 -0.895105,-0.327478 -0.334754,-0.0655 -0.684064,-0.0946 -1.047928,-0.0946 l -3.798738,0 0,4.315425 4.111661,0 0,0.0073 z m 0.225596,7.85946 c 0.40025,0 0.778669,-0.03639 1.142532,-0.116437 0.363864,-0.08005 0.684064,-0.203764 0.960601,-0.392973 0.269259,-0.181932 0.494855,-0.422082 0.662232,-0.735005 0.167378,-0.312923 0.24015,-0.713173 0.24015,-1.193473 0,-0.953324 -0.269259,-1.622833 -0.8005,-2.037638 -0.531241,-0.407527 -1.244415,-0.604014 -2.117688,-0.604014 l -4.417307,0 0,5.07954 4.32998,0 0,0 z"
     style="fill:#ffffff;fill-opacity:1" /><path
     inkscape:connector-curvature="0"
     id="XMLID_99_"
     d="m 36.242372,35.847292 c 0.553073,0.538519 1.346296,0.807778 2.372392,0.807778 0.742282,0 1.382683,-0.189209 1.913924,-0.560351 0.531241,-0.371141 0.858719,-0.771391 0.982432,-1.186196 l 3.231111,0 c -0.516686,1.608279 -1.30991,2.758088 -2.379669,3.44943 -1.062483,0.691341 -2.357838,1.04065 -3.871512,1.04065 -1.055205,0 -2.001251,-0.167377 -2.852692,-0.509409 -0.851442,-0.342032 -1.557337,-0.815055 -2.154074,-1.433624 -0.582182,-0.625846 -1.033374,-1.360851 -1.353574,-2.226847 -0.3202,-0.858718 -0.4803,-1.812041 -0.4803,-2.845415 0,-0.996987 0.167377,-1.935756 0.494855,-2.794474 0.334755,-0.865996 0.793223,-1.615556 1.397237,-2.241402 0.604014,-0.633123 1.324464,-1.127977 2.168629,-1.491841 0.836886,-0.363864 1.761101,-0.545796 2.787197,-0.545796 1.127978,0 2.117687,0.218318 2.969129,0.662232 0.844164,0.436637 1.535505,1.026096 2.081301,1.768378 0.545796,0.742283 0.931491,1.586447 1.171641,2.532493 0.240151,0.946046 0.327478,1.935756 0.254705,2.976406 l -9.642392,0 c 0,1.062483 0.356587,2.066747 0.90966,2.597988 z m 4.213543,-7.015295 c -0.436636,-0.4803 -1.171641,-0.742282 -2.074024,-0.742282 -0.589459,0 -1.069759,0.101882 -1.462732,0.298368 -0.378419,0.196487 -0.691342,0.443914 -0.931492,0.735005 -0.24015,0.298368 -0.40025,0.611291 -0.494855,0.938769 -0.0946,0.327477 -0.152823,0.618568 -0.167377,0.88055 l 5.974644,0 c -0.08005,-0.931491 -0.40025,-1.622832 -0.844164,-2.11041 z"
     style="fill:#ffffff;fill-opacity:1" /><rect
     y="21.838533"
     x="34.583153"
     width="7.481041"
     id="XMLID_98_"
     height="1.8193192"
     style="fill:#ffffff;fill-opacity:1" /></svg>