<?xml version="1.0" encoding="UTF-8" standalone="no"?>
<!-- Created with Inkscape (http://www.inkscape.org/) -->

<svg
   xmlns:dc="http://purl.org/dc/elements/1.1/"
   xmlns:cc="http://creativecommons.org/ns#"
   xmlns:rdf="http://www.w3.org/1999/02/22-rdf-syntax-ns#"
   xmlns:svg="http://www.w3.org/2000/svg"
   xmlns="http://www.w3.org/2000/svg"
   xmlns:sodipodi="http://sodipodi.sourceforge.net/DTD/sodipodi-0.dtd"
   xmlns:inkscape="http://www.inkscape.org/namespaces/inkscape"
   width="30"
   height="30"
   viewBox="0 0 30 30.000001"
   id="svg5845"
   version="1.1"
   inkscape:version="0.91 r13725"
   sodipodi:docname="DS-Logo.svg">
  <defs
     id="defs5847">
    <filter
       inkscape:collect="always"
       style="color-interpolation-filters:sRGB"
       id="filter3830"
       x="-0.48164013"
       width="1.9632802"
       y="-0.15202384"
       height="1.3040477">
      <feGaussianBlur
         inkscape:collect="always"
         stdDeviation="7.6737914"
         id="feGaussianBlur3832" />
    </filter>
    <filter
       inkscape:collect="always"
       style="color-interpolation-filters:sRGB"
       id="filter3834"
       x="-0.078716047"
       width="1.1574321"
       y="-0.087338172"
       height="1.1746763">
      <feGaussianBlur
         inkscape:collect="always"
         stdDeviation="7.6737914"
         id="feGaussianBlur3836" />
    </filter>
  </defs>
  <sodipodi:namedview
     id="base"
     pagecolor="#ffffff"
     bordercolor="#666666"
     borderopacity="1.0"
     inkscape:pageopacity="0.0"
     inkscape:pageshadow="2"
     inkscape:zoom="11.313708"
     inkscape:cx="20.807267"
     inkscape:cy="21.087716"
     inkscape:document-units="px"
     inkscape:current-layer="layer1"
     showgrid="false"
     units="px"
     inkscape:window-width="1920"
     inkscape:window-height="1046"
     inkscape:window-x="-11"
     inkscape:window-y="-11"
     inkscape:window-maximized="1" />
  <metadata
     id="metadata5850">
    <rdf:RDF>
      <cc:Work
         rdf:about="">
        <dc:format>image/svg+xml</dc:format>
        <dc:type
           rdf:resource="http://purl.org/dc/dcmitype/StillImage" />
        <dc:title></dc:title>
      </cc:Work>
    </rdf:RDF>
  </metadata>
  <g
     inkscape:label="Layer 1"
     inkscape:groupmode="layer"
     id="layer1"
     transform="translate(0,-1022.3622)">
    <rect
       style="opacity:1;fill:#242424;fill-opacity:1;stroke:none;stroke-width:6.30700016;stroke-miterlimit:4;stroke-dasharray:none;stroke-opacity:1"
       id="rect3954"
       width="347.14285"
       height="301.42856"
       x="217.60045"
       y="755.85999"
       inkscape:export-filename="C:\Users\Divit\Pictures\Finished Designs\DS Logo 2 Padded.png"
       inkscape:export-xdpi="90"
       inkscape:export-ydpi="90" />
    <g
       id="g3729"
       transform="translate(-265.5186,71.064232)">
      <g
         transform="matrix(0.7284918,0,0,0.72739472,874.80304,600.17364)"
         id="g3831"
         style="fill:#000000;fill-opacity:0.72538859;filter:url(#filter3834)">
        <path
           id="path3833"
           d="m -1057.8565,390.49807 0,104.71093 74.75387,27.38868 0,20.77929 0,23.73633 -38.23827,0 0,-37.74609 -36.5156,-13.37891 0,85.37891 111.2695,0 0,-104.71094 -74.7539,-27.38867 0,-20.7793 0,-23.73633 38.23827,0 0,37.7461 36.51563,13.3789 0,-85.3789 -111.2695,0 z"
           style="opacity:1;fill:#000000;fill-opacity:0.72538859;stroke:none;stroke-width:4.99969673;stroke-miterlimit:4;stroke-dasharray:none;stroke-opacity:1"
           inkscape:connector-curvature="0" />
        <path
           id="path3835"
           d="m -1180.5558,390.50007 0,34.25391 74.754,0 0,142.36132 -74.754,0 0,34.25391 111.2696,0 0,-210.86914 -111.2696,0 z"
           style="opacity:1;fill:#000000;fill-opacity:0.72538859;stroke:none;stroke-width:4.99969673;stroke-miterlimit:4;stroke-dasharray:none;stroke-opacity:1"
           inkscape:connector-curvature="0" />
      </g>
      <path
         transform="matrix(0.7284918,0,0,0.72739472,874.80304,600.17364)"
         inkscape:connector-curvature="0"
         style="opacity:1;fill:#000000;fill-opacity:0.72538859;stroke:none;stroke-width:4.99969673;stroke-miterlimit:4;stroke-dasharray:none;stroke-opacity:1;filter:url(#filter3830)"
         d="m -1170.5558,435.3606 0,121.14613 38.2383,0 0,-121.14613 -38.2383,0 z"
         id="path3837" />
    </g>
    <g
       id="g3735"
       transform="matrix(0.1642765,0,0,0.1642765,-0.36507943,880.64304)">
      <g
         style="fill:#000000;fill-opacity:1"
         transform="matrix(0.7284918,0,0,0.72739472,868.33486,593.25672)"
         id="g3813">
        <path
           inkscape:connector-curvature="0"
           style="opacity:1;fill:#000000;fill-opacity:1;stroke:none;stroke-width:4.99969673;stroke-miterlimit:4;stroke-dasharray:none;stroke-opacity:1"
           d="m -1057.8565,390.49807 0,104.71093 74.75387,27.38868 0,20.77929 0,23.73633 -38.23827,0 0,-37.74609 -36.5156,-13.37891 0,85.37891 111.2695,0 0,-104.71094 -74.7539,-27.38867 0,-20.7793 0,-23.73633 38.23827,0 0,37.7461 36.51563,13.3789 0,-85.3789 -111.2695,0 z"
           id="path3960" />
        <path
           inkscape:connector-curvature="0"
           style="opacity:1;fill:#000000;fill-opacity:1;stroke:none;stroke-width:4.99969673;stroke-miterlimit:4;stroke-dasharray:none;stroke-opacity:1"
           d="m -1180.5558,390.50007 0,34.25391 74.754,0 0,142.36132 -74.754,0 0,34.25391 111.2696,0 0,-210.86914 -111.2696,0 z"
           id="path3958" />
      </g>
      <path
         id="rect3826-4-5"
         d="m 15.594558,909.93572 0,88.12106 27.856288,0 0,-88.12106 -27.856288,0 z"
         style="opacity:1;fill:#000000;fill-opacity:1;stroke:none;stroke-width:4.99969673;stroke-miterlimit:4;stroke-dasharray:none;stroke-opacity:1"
         inkscape:connector-curvature="0" />
    </g>
    <path
       style="fill:#000000;fill-opacity:0.10362692;fill-rule:evenodd;stroke:none;stroke-width:1px;stroke-linecap:butt;stroke-linejoin:miter;stroke-opacity:1"
       d="m -122.11996,920.79002 -26.60133,24.91611 0,27.45632 26.60133,9.73173 z"
       id="path3802"
       inkscape:connector-curvature="0" />
    <path
       inkscape:connector-curvature="0"
       id="path3806"
       d="m -122.5687,1075.9428 26.601316,-24.9161 0,-27.4562 -26.601316,-9.7318 z"
       style="fill:#000000;fill-opacity:0.10362692;fill-rule:evenodd;stroke:none;stroke-width:1px;stroke-linecap:butt;stroke-linejoin:miter;stroke-opacity:1" />
    <path
       style="fill:#000000;fill-opacity:0.10362692;fill-rule:evenodd;stroke:none;stroke-width:1px;stroke-linecap:butt;stroke-linejoin:miter;stroke-opacity:1"
       d="m -60.77298,995.93545 27.856284,-88.12105 0,88.12105 z"
       id="path3859"
       inkscape:connector-curvature="0" />
  </g>
</svg>
