<?xml version="1.0" encoding="UTF-8" standalone="no"?>
<svg
   xmlns:dc="http://purl.org/dc/elements/1.1/"
   xmlns:cc="http://creativecommons.org/ns#"
   xmlns:rdf="http://www.w3.org/1999/02/22-rdf-syntax-ns#"
   xmlns:svg="http://www.w3.org/2000/svg"
   xmlns="http://www.w3.org/2000/svg"
   xmlns:sodipodi="http://sodipodi.sourceforge.net/DTD/sodipodi-0.dtd"
   xmlns:inkscape="http://www.inkscape.org/namespaces/inkscape"
   height="67px"
   id="Layer_1"
   style="enable-background:new 0 0 67 67;"
   version="1.1"
   viewBox="0 0 67 67"
   width="67px"
   xml:space="preserve"
   inkscape:version="0.91 r13725"
   sodipodi:docname="GithubWhite.svg"><metadata
     id="metadata9"><rdf:RDF><cc:Work
         rdf:about=""><dc:format>image/svg+xml</dc:format><dc:type
           rdf:resource="http://purl.org/dc/dcmitype/StillImage" /><dc:title></dc:title></cc:Work></rdf:RDF></metadata><defs
     id="defs7" /><sodipodi:namedview
     pagecolor="#ffffff"
     bordercolor="#666666"
     borderopacity="1"
     objecttolerance="10"
     gridtolerance="10"
     guidetolerance="10"
     inkscape:pageopacity="0"
     inkscape:pageshadow="2"
     inkscape:window-width="1920"
     inkscape:window-height="1046"
     id="namedview5"
     showgrid="false"
     inkscape:zoom="4.981409"
     inkscape:cx="-51.746401"
     inkscape:cy="31.604728"
     inkscape:window-x="-11"
     inkscape:window-y="-11"
     inkscape:window-maximized="1"
     inkscape:current-layer="Layer_1" /><path
     style="opacity:1;fill:#ffffff;fill-opacity:1;stroke:none;stroke-width:10;stroke-linecap:round;stroke-linejoin:miter;stroke-miterlimit:4;stroke-dasharray:none;stroke-dashoffset:0;stroke-opacity:1"
     d="m 42.17776,19.394198 c -1.121085,0.01636 -3.093681,1.031003 -4.236524,1.773053 -2.127611,-0.611564 -6.625612,-0.553102 -8.312598,0.157208 -3.112584,-2.189846 -4.760012,-1.854086 -4.760012,-1.854086 0,0 -1.065336,1.874065 -0.282003,4.61739 -1.023974,1.282871 -1.787637,2.190725 -1.787637,4.59632 7.89e-4,1.355895 0.164027,2.569933 0.52997,3.628758 -0.04481,0 0.490724,1.134495 0.50566,1.134495 1.170019,2.08778 3.425327,3.385316 7.229967,3.74545 -0.542691,0.404943 -1.194773,1.17365 -1.28522,2.061538 -0.682927,0.433986 -2.055975,0.577437 -3.123099,0.246347 -1.496132,-0.463858 -2.068202,-3.374308 -4.307835,-2.959409 -0.484604,0.08879 -0.388257,0.402946 0.03078,0.670973 0.682928,0.433985 1.324661,0.978555 1.820052,2.134469 0.380879,0.887886 1.180523,2.473196 3.711417,2.473196 1.004058,0 1.708223,-0.118311 1.708223,-0.118311 0,0 0.01945,2.266161 0.01945,3.14741 0,1.016506 -1.395427,1.302126 -1.395427,1.790878 0,0.193344 0.462122,0.212314 0.833043,0.212314 0.733544,0 2.259264,-0.601645 2.259264,-1.657982 0,-0.83893 0.01297,-3.659306 0.01297,-4.153868 0,-1.078741 0.589938,-1.421358 0.589938,-1.421358 0,0 0.07226,5.758069 -0.141002,6.531443 -0.2506,0.907801 -0.703385,0.779791 -0.703385,1.184736 0,0.602434 1.838189,0.148521 2.447264,-1.175013 0.470497,-1.028123 0.264176,-6.680547 0.264176,-6.680547 l 0.502417,-0.0097 c 0,0 0.02714,2.587295 0.0097,3.769762 -0.01742,1.224785 -0.101619,2.772119 0.638559,3.502344 0.486262,0.480455 2.061536,1.322716 2.061536,0.55266 0,-0.447262 -0.863835,-0.813581 -0.863835,-2.02426 l 0,-5.571986 c 0.689564,0 0.586694,1.831397 0.586694,1.831397 l 0.05025,3.405103 c 0,0 -0.153074,1.239839 1.364633,1.758465 0.535222,0.185045 1.681839,0.234963 1.735776,-0.07455 0.05393,-0.309516 -1.380529,-0.770044 -1.393807,-1.729294 -0.0084,-0.58667 0.02756,-0.928964 0.02756,-3.474792 0,-2.54583 -0.348399,-3.486384 -1.560738,-4.236523 3.740743,-0.377561 6.056887,-1.287295 7.184587,-3.72276 0.08796,0.0026 0.460617,-1.137737 0.411659,-1.137737 0.253089,-0.919419 0.389967,-2.007042 0.416521,-3.294893 -0.0065,-3.493466 -1.707872,-4.729404 -2.033985,-5.309433 0.481284,-2.644577 -0.08141,-3.847596 -0.341969,-4.260837 -0.120529,-0.04211 -0.26285,-0.06069 -0.423004,-0.05834 z"
     id="rect3712"
     inkscape:connector-curvature="0" /></svg>